<svg width="25" height="19" viewBox="0 0 25 19" fill="none" xmlns="http://www.w3.org/2000/svg">
<path d="M23.7595 8.1308C24.1223 8.49408 24.3261 8.98653 24.3261 9.49997C24.3261 10.0134 24.1223 10.5059 23.7595 10.8691L16.4538 18.1787C16.0903 18.5421 15.5974 18.7463 15.0834 18.7463C14.5693 18.7463 14.0764 18.5421 13.7129 18.1787C13.3494 17.8152 13.1452 17.3222 13.1452 16.8082C13.1452 16.2942 13.3494 15.8012 13.7129 15.4378L17.7119 11.4375H2.81252C2.29867 11.4375 1.80586 11.2333 1.44251 10.87C1.07916 10.5066 0.875025 10.0138 0.875025 9.49997C0.875025 8.98611 1.07916 8.4933 1.44251 8.12995C1.80586 7.7666 2.29867 7.56247 2.81252 7.56247L17.7119 7.56247L13.7129 3.56347C13.5329 3.3835 13.3902 3.16984 13.2928 2.9347C13.1954 2.69955 13.1452 2.44753 13.1452 2.19301C13.1452 1.93849 13.1954 1.68647 13.2928 1.45132C13.3902 1.21618 13.5329 1.00252 13.7129 0.82255C13.8929 0.642579 14.1065 0.49982 14.3417 0.40242C14.5768 0.30502 14.8288 0.254889 15.0834 0.254889C15.3379 0.254889 15.5899 0.30502 15.825 0.40242C16.0602 0.49982 16.2738 0.642579 16.4538 0.82255L23.7595 8.1308Z" fill="#030303"/>
</svg>
