<svg width="95" height="95" viewBox="0 0 95 95" fill="none" xmlns="http://www.w3.org/2000/svg">
<path fill-rule="evenodd" clip-rule="evenodd" d="M47.5 83.125C52.1783 83.125 56.8109 82.2035 61.1331 80.4132C65.4553 78.6229 69.3826 75.9988 72.6907 72.6907C75.9988 69.3826 78.6229 65.4553 80.4132 61.1331C82.2035 56.8109 83.125 52.1783 83.125 47.5C83.125 42.8217 82.2035 38.1891 80.4132 33.8669C78.6229 29.5447 75.9988 25.6174 72.6907 22.3093C69.3826 19.0012 65.4553 16.3771 61.1331 14.5868C56.8109 12.7965 52.1783 11.875 47.5 11.875C38.0517 11.875 28.9903 15.6283 22.3093 22.3093C15.6283 28.9903 11.875 38.0517 11.875 47.5C11.875 56.9483 15.6283 66.0097 22.3093 72.6907C28.9903 79.3717 38.0517 83.125 47.5 83.125ZM46.5817 61.9083L66.3733 38.1583L60.2933 33.0917L43.2725 53.5127L34.4652 44.7015L28.8681 50.2985L40.7431 62.1735L43.8069 65.2373L46.5817 61.9083Z" fill="#008B7E"/>
</svg>
