<svg width="12" height="12" viewBox="0 0 12 12" fill="none" xmlns="http://www.w3.org/2000/svg">
<path d="M6 2.5H12M0 2.5H2.5M2.5 2.5C2.5 3.03043 2.71071 3.53914 3.08579 3.91421C3.46086 4.28929 3.96957 4.5 4.5 4.5C5.03043 4.5 5.53914 4.28929 5.91421 3.91421C6.28929 3.53914 6.5 3.03043 6.5 2.5C6.5 1.96957 6.28929 1.46086 5.91421 1.08579C5.53914 0.710714 5.03043 0.5 4.5 0.5C3.96957 0.5 3.46086 0.710714 3.08579 1.08579C2.71071 1.46086 2.5 1.96957 2.5 2.5ZM0 9.5H6M9.5 9.5H12M9.5 9.5C9.5 10.0304 9.28929 10.5391 8.91421 10.9142C8.53914 11.2893 8.03043 11.5 7.5 11.5C6.96957 11.5 6.46086 11.2893 6.08579 10.9142C5.71071 10.5391 5.5 10.0304 5.5 9.5C5.5 8.96957 5.71071 8.46086 6.08579 8.08579C6.46086 7.71071 6.96957 7.5 7.5 7.5C8.03043 7.5 8.53914 7.71071 8.91421 8.08579C9.28929 8.46086 9.5 8.96957 9.5 9.5Z" stroke="#030303"/>
</svg>
