<svg width="40" height="40" viewBox="0 0 40 40" fill="none" xmlns="http://www.w3.org/2000/svg">
<path d="M25 32.5C24.337 32.5 23.7011 32.2366 23.2322 31.7678C22.7634 31.2989 22.5 30.663 22.5 30C22.5 29.337 22.7634 28.7011 23.2322 28.2322C23.7011 27.7634 24.337 27.5 25 27.5C25.663 27.5 26.2989 27.7634 26.7678 28.2322C27.2366 28.7011 27.5 29.337 27.5 30C27.5 30.663 27.2366 31.2989 26.7678 31.7678C26.2989 32.2366 25.663 32.5 25 32.5ZM25 22.5C24.337 22.5 23.7011 22.2366 23.2322 21.7678C22.7634 21.2989 22.5 20.663 22.5 20C22.5 19.337 22.7634 18.7011 23.2322 18.2322C23.7011 17.7634 24.337 17.5 25 17.5C25.663 17.5 26.2989 17.7634 26.7678 18.2322C27.2366 18.7011 27.5 19.337 27.5 20C27.5 20.663 27.2366 21.2989 26.7678 21.7678C26.2989 22.2366 25.663 22.5 25 22.5ZM15 32.5C14.337 32.5 13.7011 32.2366 13.2322 31.7678C12.7634 31.2989 12.5 30.663 12.5 30C12.5 29.337 12.7634 28.7011 13.2322 28.2322C13.7011 27.7634 14.337 27.5 15 27.5C15.663 27.5 16.2989 27.7634 16.7678 28.2322C17.2366 28.7011 17.5 29.337 17.5 30C17.5 30.663 17.2366 31.2989 16.7678 31.7678C16.2989 32.2366 15.663 32.5 15 32.5ZM27.5 10C27.5 10.663 27.2366 11.2989 26.7678 11.7678C26.2989 12.2366 25.663 12.5 25 12.5C24.337 12.5 23.7011 12.2366 23.2322 11.7678C22.7634 11.2989 22.5 10.663 22.5 10C22.5 9.33696 22.7634 8.70107 23.2322 8.23223C23.7011 7.76339 24.337 7.5 25 7.5C25.663 7.5 26.2989 7.76339 26.7678 8.23223C27.2366 8.70107 27.5 9.33696 27.5 10ZM17.5 20C17.5 20.663 17.2366 21.2989 16.7678 21.7678C16.2989 22.2366 15.663 22.5 15 22.5C14.337 22.5 13.7011 22.2366 13.2322 21.7678C12.7634 21.2989 12.5 20.663 12.5 20C12.5 19.337 12.7634 18.7011 13.2322 18.2322C13.7011 17.7634 14.337 17.5 15 17.5C15.663 17.5 16.2989 17.7634 16.7678 18.2322C17.2366 18.7011 17.5 19.337 17.5 20ZM15 12.5C14.337 12.5 13.7011 12.2366 13.2322 11.7678C12.7634 11.2989 12.5 10.663 12.5 10C12.5 9.33696 12.7634 8.70107 13.2322 8.23223C13.7011 7.76339 14.337 7.5 15 7.5C15.663 7.5 16.2989 7.76339 16.7678 8.23223C17.2366 8.70107 17.5 9.33696 17.5 10C17.5 10.663 17.2366 11.2989 16.7678 11.7678C16.2989 12.2366 15.663 12.5 15 12.5Z" fill="#9AA0A9"/>
</svg>
