<svg width="10" height="16" viewBox="0 0 10 16" fill="none" xmlns="http://www.w3.org/2000/svg">
<path fill-rule="evenodd" clip-rule="evenodd" d="M1.5 3.66675C2.32842 3.66675 3 2.99517 3 2.16675C3 1.33833 2.32842 0.666748 1.5 0.666748C0.671578 0.666748 0 1.33833 0 2.16675C0 2.99517 0.671578 3.66675 1.5 3.66675ZM8.50003 3.66675C9.32845 3.66675 10 2.99517 10 2.16675C10 1.33833 9.32845 0.666748 8.50003 0.666748C7.67161 0.666748 7.00003 1.33833 7.00003 2.16675C7.00003 2.99517 7.67156 3.66675 8.50003 3.66675ZM3 8.16675C3 8.99517 2.32842 9.66675 1.5 9.66675C0.671578 9.66675 0 8.99517 0 8.16675C0 7.33833 0.671578 6.66675 1.5 6.66675C2.32842 6.66675 3 7.33833 3 8.16675ZM8.50003 9.66675C9.32845 9.66675 10 8.99517 10 8.16675C10 7.33833 9.32845 6.66675 8.50003 6.66675C7.67161 6.66675 7.00003 7.33833 7.00003 8.16675C7.00003 8.99517 7.67156 9.66675 8.50003 9.66675ZM3 14.1667C3 14.9952 2.32842 15.6667 1.5 15.6667C0.671578 15.6667 0 14.9952 0 14.1667C0 13.3383 0.671578 12.6667 1.5 12.6667C2.32842 12.6667 3 13.3383 3 14.1667ZM8.50003 15.6667C9.32845 15.6667 10 14.9952 10 14.1667C10 13.3383 9.32845 12.6667 8.50003 12.6667C7.67161 12.6667 7.00003 13.3383 7.00003 14.1667C7.00003 14.9952 7.67156 15.6667 8.50003 15.6667Z" fill="#030303"/>
</svg>
