<svg width="24" height="24" viewBox="0 0 24 24" fill="none" xmlns="http://www.w3.org/2000/svg">
<path fill-rule="evenodd" clip-rule="evenodd" d="M8.5 7C9.32842 7 10 6.32842 10 5.5C10 4.67158 9.32842 4 8.5 4C7.67158 4 7 4.67158 7 5.5C7 6.32842 7.67158 7 8.5 7ZM15.5 7C16.3285 7 17 6.32842 17 5.5C17 4.67158 16.3285 4 15.5 4C14.6716 4 14 4.67158 14 5.5C14 6.32842 14.6716 7 15.5 7ZM10 11.5C10 12.3284 9.32842 13 8.5 13C7.67158 13 7 12.3284 7 11.5C7 10.6716 7.67158 10 8.5 10C9.32842 10 10 10.6716 10 11.5ZM15.5 13C16.3285 13 17 12.3284 17 11.5C17 10.6716 16.3285 10 15.5 10C14.6716 10 14 10.6716 14 11.5C14 12.3284 14.6716 13 15.5 13ZM10 17.5C10 18.3284 9.32842 19 8.5 19C7.67158 19 7 18.3284 7 17.5C7 16.6716 7.67158 16 8.5 16C9.32842 16 10 16.6716 10 17.5ZM15.5 19C16.3285 19 17 18.3284 17 17.5C17 16.6716 16.3285 16 15.5 16C14.6716 16 14 16.6716 14 17.5C14 18.3284 14.6716 19 15.5 19Z" fill="#8823BB"/>
</svg>
