<svg width="15" height="15" viewBox="0 0 15 15" fill="none" xmlns="http://www.w3.org/2000/svg">
<path d="M12.9807 6.51861C12.8856 5.33757 12.443 4.21111 11.7086 3.28127C10.9743 2.35142 9.98102 1.65983 8.85415 1.29368C7.72728 0.927524 6.51723 0.903212 5.37656 1.2238C4.2359 1.5444 3.21569 2.19554 2.44456 3.09514C1.67344 3.99473 1.18594 5.1025 1.04351 6.27877C0.901084 7.45504 1.11012 8.64715 1.64425 9.70479C2.17838 10.7624 3.01371 11.6382 4.04489 12.2218C5.07608 12.8054 6.25697 13.0706 7.43866 12.9839" stroke="#000000ff" stroke-linecap="round" stroke-linejoin="round"/>
<path d="M7 3.6665V6.99984L8 7.99984M11.6667 10.9998V11.0065M13.0807 12.4138C13.3604 12.1342 13.551 11.7778 13.6282 11.3898C13.7054 11.0018 13.6658 10.5997 13.5145 10.2342C13.3631 9.8687 13.1068 9.5563 12.7779 9.33651C12.449 9.11672 12.0623 8.99941 11.6667 8.99941C11.2711 8.99941 10.8844 9.11672 10.5555 9.33651C10.2266 9.5563 9.97021 9.8687 9.81885 10.2342C9.66749 10.5997 9.62792 11.0018 9.70514 11.3898C9.78236 11.7778 9.9729 12.1342 10.2527 12.4138C10.5313 12.6929 11.0027 13.1105 11.6667 13.6665C12.3676 13.0732 12.8389 12.6556 13.0807 12.4138Z" stroke="#000000ff" stroke-linecap="round" stroke-linejoin="round"/>
</svg>
