<svg width="15" height="15" viewBox="0 0 15 15" fill="none" xmlns="http://www.w3.org/2000/svg">
<path d="M7.15909 1.68164H2.36869C2.00569 1.68164 1.65756 1.82584 1.40088 2.08252C1.1442 2.3392 1 2.68733 1 3.05033V12.6311C1 12.9941 1.1442 13.3423 1.40088 13.5989C1.65756 13.8556 2.00569 13.9998 2.36869 13.9998H11.9495C12.3125 13.9998 12.6606 13.8556 12.9173 13.5989C13.174 13.3423 13.3182 12.9941 13.3182 12.6311V7.84073" stroke="#030303" stroke-width="2" stroke-linecap="round" stroke-linejoin="round"/>
<path d="M11.5227 1.4252C11.795 1.15295 12.1642 1 12.5492 1C12.9343 1 13.3035 1.15295 13.5757 1.4252C13.848 1.69744 14.0009 2.06669 14.0009 2.45171C14.0009 2.83673 13.848 3.20598 13.5757 3.47823L7.40776 9.64689C7.24527 9.80925 7.04452 9.9281 6.82402 9.99249L4.8579 10.5673C4.79901 10.5845 4.73659 10.5855 4.67717 10.5703C4.61775 10.5551 4.56352 10.5242 4.52014 10.4808C4.47677 10.4374 4.44585 10.3832 4.43063 10.3238C4.4154 10.2643 4.41643 10.2019 4.43361 10.143L5.00846 8.17692C5.07315 7.9566 5.19223 7.75609 5.35473 7.59386L11.5227 1.4252Z" stroke="#030303" stroke-width="2" stroke-linecap="round" stroke-linejoin="round"/>
</svg>
