<svg width="18" height="18" viewBox="0 0 14 14" fill="none" xmlns="http://www.w3.org/2000/svg">
<path d="M7 1.75H2.91667C2.60725 1.75 2.3105 1.87292 2.09171 2.09171C1.87292 2.3105 1.75 2.60725 1.75 2.91667V11.0833C1.75 11.3928 1.87292 11.6895 2.09171 11.9083C2.3105 12.1271 2.60725 12.25 2.91667 12.25H11.0833C11.3928 12.25 11.6895 12.1271 11.9083 11.9083C12.1271 11.6895 12.25 11.3928 12.25 11.0833V7" stroke="#BA55ED" stroke-width="1.16667" stroke-linecap="round" stroke-linejoin="round"/>
<path d="M10.719 1.53138C10.951 1.29932 11.2658 1.16895 11.594 1.16895C11.9222 1.16895 12.2369 1.29932 12.469 1.53138C12.701 1.76345 12.8314 2.07819 12.8314 2.40638C12.8314 2.73457 12.701 3.04932 12.469 3.28138L7.21138 8.53955C7.07287 8.67794 6.90175 8.77925 6.7138 8.83413L5.03788 9.32413C4.98769 9.33877 4.93448 9.33965 4.88383 9.32667C4.83318 9.3137 4.78695 9.28734 4.74998 9.25037C4.71301 9.2134 4.68665 9.16717 4.67368 9.11652C4.6607 9.06587 4.66158 9.01266 4.67622 8.96247L5.16622 7.28655C5.22136 7.09874 5.32286 6.92783 5.46138 6.78955L10.719 1.53138Z" stroke="#BA55ED" stroke-width="1.16667" stroke-linecap="round" stroke-linejoin="round"/>
</svg>
