<svg width="18" height="18" viewBox="0 0 18 18" fill="none" xmlns="http://www.w3.org/2000/svg">
<path d="M9 0C13.9707 0 18 4.0293 18 9C18 13.9707 13.9707 18 9 18C4.0293 18 0 13.9707 0 9C0 4.0293 4.0293 0 9 0ZM9 1.8C7.09044 1.8 5.25909 2.55857 3.90883 3.90883C2.55857 5.25909 1.8 7.09044 1.8 9C1.8 10.9096 2.55857 12.7409 3.90883 14.0912C5.25909 15.4414 7.09044 16.2 9 16.2C10.9096 16.2 12.7409 15.4414 14.0912 14.0912C15.4414 12.7409 16.2 10.9096 16.2 9C16.2 7.09044 15.4414 5.25909 14.0912 3.90883C12.7409 2.55857 10.9096 1.8 9 1.8ZM9 11.7C9.23869 11.7 9.46761 11.7948 9.6364 11.9636C9.80518 12.1324 9.9 12.3613 9.9 12.6C9.9 12.8387 9.80518 13.0676 9.6364 13.2364C9.46761 13.4052 9.23869 13.5 9 13.5C8.7613 13.5 8.53239 13.4052 8.3636 13.2364C8.19482 13.0676 8.1 12.8387 8.1 12.6C8.1 12.3613 8.19482 12.1324 8.3636 11.9636C8.53239 11.7948 8.7613 11.7 9 11.7ZM9 3.6C9.23869 3.6 9.46761 3.69482 9.6364 3.8636C9.80518 4.03239 9.9 4.2613 9.9 4.5V9.9C9.9 10.1387 9.80518 10.3676 9.6364 10.5364C9.46761 10.7052 9.23869 10.8 9 10.8C8.7613 10.8 8.53239 10.7052 8.3636 10.5364C8.19482 10.3676 8.1 10.1387 8.1 9.9V4.5C8.1 4.2613 8.19482 4.03239 8.3636 3.8636C8.53239 3.69482 8.7613 3.6 9 3.6Z" fill="black"/>
</svg>
