<svg width="24" height="24" viewBox="0 0 24 24" fill="none" xmlns="http://www.w3.org/2000/svg">
<path d="M7 9V7H21V9H7ZM7 13V11H21V13H7ZM7 17V15H21V17H7ZM4 9C3.71667 9 3.47934 8.904 3.288 8.712C3.09667 8.52 3.00067 8.28267 3 8C2.99934 7.71733 3.09534 7.48 3.288 7.288C3.48067 7.096 3.718 7 4 7C4.282 7 4.51967 7.096 4.713 7.288C4.90634 7.48 5.002 7.71733 5 8C4.998 8.28267 4.902 8.52033 4.712 8.713C4.522 8.90567 4.28467 9.00133 4 9ZM4 13C3.71667 13 3.47934 12.904 3.288 12.712C3.09667 12.52 3.00067 12.2827 3 12C2.99934 11.7173 3.09534 11.48 3.288 11.288C3.48067 11.096 3.718 11 4 11C4.282 11 4.51967 11.096 4.713 11.288C4.90634 11.48 5.002 11.7173 5 12C4.998 12.2827 4.902 12.5203 4.712 12.713C4.522 12.9057 4.28467 13.0013 4 13ZM4 17C3.71667 17 3.47934 16.904 3.288 16.712C3.09667 16.52 3.00067 16.2827 3 16C2.99934 15.7173 3.09534 15.48 3.288 15.288C3.48067 15.096 3.718 15 4 15C4.282 15 4.51967 15.096 4.713 15.288C4.90634 15.48 5.002 15.7173 5 16C4.998 16.2827 4.902 16.5203 4.712 16.713C4.522 16.9057 4.28467 17.0013 4 17Z" fill="#8B5CF6"/>
</svg>
