<svg width="18" height="20" viewBox="0 0 18 20" fill="none" xmlns="http://www.w3.org/2000/svg">
<path fill-rule="evenodd" clip-rule="evenodd" d="M9 4.05003C5.131 4.05003 2 7.17602 2 11.025C2.0005 12.271 2.335 13.4941 2.96868 14.5669C3.60235 15.6398 4.51203 16.5231 5.603 17.125C6.04433 17.3704 6.511 17.566 7.003 17.712C7.12894 17.7493 7.2463 17.8111 7.34838 17.8937C7.45045 17.9764 7.53525 18.0783 7.59793 18.1937C7.66061 18.3092 7.69994 18.4358 7.71368 18.5664C7.72742 18.697 7.7153 18.8291 7.678 18.955C7.64071 19.081 7.57897 19.1983 7.49632 19.3004C7.41367 19.4025 7.31172 19.4873 7.1963 19.55C7.08087 19.6126 6.95424 19.652 6.82361 19.6657C6.69299 19.6794 6.56094 19.6673 6.435 19.63C5.80906 19.4444 5.20517 19.1913 4.634 18.875C3.23057 18.1001 2.06047 16.9631 1.24549 15.5826C0.43051 14.202 0.000426908 12.6282 0 11.025C0 6.06502 4.032 2.05103 9 2.05103C10.24 2.05103 11.425 2.30103 12.502 2.75603C12.7464 2.85906 12.9399 3.05496 13.0398 3.30064C13.1398 3.54631 13.138 3.82163 13.035 4.06603C12.932 4.31042 12.7361 4.50388 12.4904 4.60384C12.2447 4.70379 11.9694 4.70206 11.725 4.59903C10.8625 4.2357 9.9359 4.04902 9 4.05003ZM8.4 19.062C8.38582 18.7974 8.47729 18.5379 8.65429 18.3407C8.8313 18.1434 9.07937 18.0245 9.344 18.01C10.2613 17.9614 11.16 17.7327 11.989 17.337C12.2273 17.2305 12.4978 17.2214 12.7427 17.3116C12.9876 17.4019 13.1875 17.5843 13.2998 17.8199C13.412 18.0555 13.4277 18.3257 13.3435 18.5727C13.2593 18.8197 13.0818 19.0241 12.849 19.142C11.7843 19.6502 10.6301 19.9441 9.452 20.007C9.18719 20.0212 8.92759 19.9296 8.7303 19.7524C8.53302 19.5752 8.41421 19.3268 8.4 19.062ZM15.792 6.68703C16.0319 6.57429 16.3068 6.56142 16.5561 6.65124C16.8055 6.74105 17.0091 6.92621 17.122 7.16603C17.6254 8.23271 17.9142 9.38794 17.972 10.566C17.9853 10.831 17.8927 11.0903 17.7148 11.2871C17.5368 11.4838 17.288 11.6018 17.023 11.615C16.758 11.6283 16.4987 11.5358 16.302 11.3578C16.1052 11.1798 15.9873 10.931 15.974 10.666C15.9299 9.74861 15.7056 8.84884 15.314 8.01802C15.258 7.89924 15.2259 7.7706 15.2196 7.63942C15.2133 7.50825 15.2329 7.37712 15.2773 7.25353C15.3217 7.12993 15.39 7.01629 15.4783 6.91909C15.5666 6.82189 15.6732 6.74303 15.792 6.68703ZM14.248 17.119C14.051 16.9416 13.9325 16.6931 13.9186 16.4283C13.9048 16.1636 13.9966 15.9041 14.174 15.707C14.788 15.0233 15.2635 14.2269 15.574 13.362C15.618 13.238 15.686 13.1239 15.7741 13.0262C15.8623 12.9286 15.9689 12.8492 16.0877 12.7928C16.2066 12.7364 16.3354 12.704 16.4668 12.6975C16.5982 12.6909 16.7296 12.7104 16.8535 12.7547C16.9774 12.7991 17.0913 12.8674 17.1887 12.9559C17.2861 13.0443 17.3651 13.1511 17.4212 13.2701C17.4772 13.3892 17.5093 13.5181 17.5154 13.6495C17.5216 13.7809 17.5017 13.9123 17.457 14.036C17.0586 15.146 16.4483 16.1679 15.66 17.045C15.4825 17.242 15.2341 17.3605 14.9693 17.3744C14.7045 17.3883 14.4451 17.2964 14.248 17.119Z" fill="black"/>
<path fill-rule="evenodd" clip-rule="evenodd" d="M10.806 0.233037C10.9067 0.182735 11.0165 0.152791 11.1288 0.144918C11.2412 0.137046 11.354 0.151398 11.4608 0.187155C11.5676 0.222912 11.6663 0.279372 11.7513 0.353306C11.8362 0.42724 11.9058 0.517199 11.956 0.618037L13.288 3.30104C13.555 3.83804 13.334 4.49104 12.795 4.75704L10.104 6.08604C10.0026 6.14076 9.89127 6.17448 9.77659 6.1852C9.6619 6.19592 9.54624 6.18341 9.4365 6.14842C9.32676 6.11343 9.2252 6.05667 9.13789 5.98155C9.05057 5.90642 8.9793 5.81446 8.92833 5.71117C8.87736 5.60788 8.84773 5.49538 8.84121 5.38038C8.8347 5.26538 8.85144 5.15025 8.89042 5.04186C8.92941 4.93347 8.98984 4.83406 9.06811 4.74956C9.14638 4.66505 9.24089 4.5972 9.34597 4.55004L11.47 3.50004L10.417 1.38204C10.3669 1.28113 10.3373 1.17135 10.3297 1.05897C10.3221 0.946592 10.3368 0.833821 10.3728 0.727108C10.4088 0.620395 10.4656 0.521831 10.5397 0.437054C10.6139 0.352278 10.705 0.28295 10.806 0.233037Z" fill="black"/>
</svg>
