<svg width="27" height="18" viewBox="0 0 27 18" fill="none" xmlns="http://www.w3.org/2000/svg">
<path d="M1.68751 17.25C1.28021 17.25 0.939047 17.112 0.664005 16.836C0.388963 16.56 0.250963 16.2188 0.250005 15.8125C0.249047 15.4062 0.387047 15.065 0.664005 14.789C0.940963 14.513 1.28213 14.375 1.68751 14.375H24.6875C25.0948 14.375 25.4364 14.513 25.7124 14.789C25.9884 15.065 26.126 15.4062 26.125 15.8125C26.124 16.2188 25.986 16.5605 25.711 16.8374C25.436 17.1144 25.0948 17.2519 24.6875 17.25H1.68751ZM1.68751 10.0625C1.28021 10.0625 0.939047 9.9245 0.664005 9.6485C0.388963 9.3725 0.250963 9.03133 0.250005 8.625C0.249047 8.21867 0.387047 7.8775 0.664005 7.6015C0.940963 7.3255 1.28213 7.1875 1.68751 7.1875H24.6875C25.0948 7.1875 25.4364 7.3255 25.7124 7.6015C25.9884 7.8775 26.126 8.21867 26.125 8.625C26.124 9.03133 25.986 9.37298 25.711 9.64994C25.436 9.9269 25.0948 10.0644 24.6875 10.0625H1.68751ZM1.68751 2.875C1.28021 2.875 0.939047 2.737 0.664005 2.461C0.388963 2.185 0.250963 1.84383 0.250005 1.4375C0.249047 1.03117 0.387047 0.69 0.664005 0.414C0.940963 0.138 1.28213 0 1.68751 0H24.6875C25.0948 0 25.4364 0.138 25.7124 0.414C25.9884 0.69 26.126 1.03117 26.125 1.4375C26.124 1.84383 25.986 2.18548 25.711 2.46244C25.436 2.7394 25.0948 2.87692 24.6875 2.875H1.68751Z" fill="#0048FF"/>
</svg>
