<svg width="22" height="24" viewBox="0 0 22 24" fill="none" xmlns="http://www.w3.org/2000/svg">
<path fill-rule="evenodd" clip-rule="evenodd" d="M2.5 10.683C2.5 6.032 6.299 2.25 11 2.25C15.701 2.25 19.5 6.032 19.5 10.683C19.5 13.389 18.24 15.703 16.598 17.5715C14.956 19.44 12.991 20.791 11.745 21.54C11.28 21.82 10.72 21.82 10.255 21.54C9.009 20.791 7.045 19.44 5.402 17.5715C3.76 15.703 2.5 13.389 2.5 10.683ZM11 0.25C5.2075 0.25 0.5 4.9145 0.5 10.683C0.5 14.0425 2.068 16.808 3.9 18.892C5.731 20.9755 7.8865 22.4495 9.224 23.254C9.75967 23.5782 10.3739 23.7496 11 23.7496C11.6261 23.7496 12.2403 23.5782 12.776 23.254C14.1135 22.449 16.269 20.9755 18.1 18.892C19.932 16.808 21.5 14.042 21.5 10.683C21.5 4.9145 16.7925 0.25 11 0.25ZM5.849 9.4165C6.345 7.157 9.089 6.2215 10.8085 7.7475C10.8745 7.8055 10.9385 7.87 11 7.934C11.062 7.87 11.126 7.8055 11.192 7.7475C12.9115 6.222 15.6555 7.1575 16.152 9.4165C16.479 10.823 15.963 12.0415 15.157 13.061C14.3545 14.076 13.242 14.9235 12.321 15.6025C11.9381 15.8839 11.4754 16.0357 11.0002 16.0357C10.5251 16.0357 10.0624 15.8839 9.6795 15.6025C8.7585 14.9235 7.646 14.0765 6.8435 13.061C6.0375 12.041 5.5215 10.823 5.8485 9.4165" fill="white"/>
</svg>
