<svg width="44" height="44" viewBox="0 0 44 44" fill="none" xmlns="http://www.w3.org/2000/svg">
<path d="M22.0003 11.917C23.2159 11.917 24.3817 12.3999 25.2412 13.2594C26.1008 14.119 26.5837 15.2847 26.5837 16.5003C26.5837 17.1022 26.4651 17.6982 26.2348 18.2543C26.0044 18.8104 25.6668 19.3156 25.2412 19.7412C24.8156 20.1668 24.3104 20.5044 23.7543 20.7348C23.1982 20.9651 22.6022 21.0837 22.0003 21.0837C20.7847 21.0837 19.619 20.6008 18.7594 19.7412C17.8999 18.8817 17.417 17.7159 17.417 16.5003C17.417 15.2847 17.8999 14.119 18.7594 13.2594C19.619 12.3999 20.7847 11.917 22.0003 11.917ZM22.0003 3.66699C25.4039 3.66699 28.6681 5.01907 31.0749 7.42579C33.4816 9.8325 34.8337 13.0967 34.8337 16.5003C34.8337 26.1253 22.0003 40.3337 22.0003 40.3337C22.0003 40.3337 9.16699 26.1253 9.16699 16.5003C9.16699 13.0967 10.5191 9.8325 12.9258 7.42579C15.3325 5.01907 18.5967 3.66699 22.0003 3.66699ZM22.0003 7.33366C19.5692 7.33366 17.2376 8.29943 15.5185 10.0185C13.7994 11.7376 12.8337 14.0692 12.8337 16.5003C12.8337 18.3337 12.8337 22.0003 22.0003 34.302C31.167 22.0003 31.167 18.3337 31.167 16.5003C31.167 14.0692 30.2012 11.7376 28.4821 10.0185C26.7631 8.29943 24.4315 7.33366 22.0003 7.33366Z" fill="#FEFFFF"/>
</svg>
