<svg width="80" height="80" viewBox="0 0 80 80" fill="none" xmlns="http://www.w3.org/2000/svg">
<path fill-rule="evenodd" clip-rule="evenodd" d="M6.66602 40.0003C6.66602 21.5903 21.5893 6.66699 39.9993 6.66699C58.4093 6.66699 73.3327 21.5903 73.3327 40.0003C73.3327 58.4103 58.4093 73.3337 39.9993 73.3337C21.5893 73.3337 6.66602 58.4103 6.66602 40.0003ZM39.9993 13.3337C32.9269 13.3337 26.1441 16.1432 21.1432 21.1441C16.1422 26.1451 13.3327 32.9279 13.3327 40.0003C13.3327 47.0728 16.1422 53.8555 21.1432 58.8565C26.1441 63.8575 32.9269 66.667 39.9993 66.667C47.0718 66.667 53.8546 63.8575 58.8555 58.8565C63.8565 53.8555 66.666 47.0728 66.666 40.0003C66.666 32.9279 63.8565 26.1451 58.8555 21.1441C53.8546 16.1432 47.0718 13.3337 39.9993 13.3337Z" fill="#FEFFFF"/>
<path fill-rule="evenodd" clip-rule="evenodd" d="M43.3333 23.3333C43.3333 22.4493 42.9821 21.6014 42.357 20.9763C41.7319 20.3512 40.8841 20 40 20C39.1159 20 38.2681 20.3512 37.643 20.9763C37.0179 21.6014 36.6667 22.4493 36.6667 23.3333V36.6667H23.3333C22.4493 36.6667 21.6014 37.0179 20.9763 37.643C20.3512 38.2681 20 39.1159 20 40C20 40.8841 20.3512 41.7319 20.9763 42.357C21.6014 42.9821 22.4493 43.3333 23.3333 43.3333H36.6667V56.6667C36.6667 57.5507 37.0179 58.3986 37.643 59.0237C38.2681 59.6488 39.1159 60 40 60C40.8841 60 41.7319 59.6488 42.357 59.0237C42.9821 58.3986 43.3333 57.5507 43.3333 56.6667V43.3333H56.6667C57.5507 43.3333 58.3986 42.9821 59.0237 42.357C59.6488 41.7319 60 40.8841 60 40C60 39.1159 59.6488 38.2681 59.0237 37.643C58.3986 37.0179 57.5507 36.6667 56.6667 36.6667H43.3333V23.3333Z" fill="#FEFFFF"/>
</svg>
