<svg width="32" height="37" viewBox="0 0 32 37" fill="none" xmlns="http://www.w3.org/2000/svg">
<path fill-rule="evenodd" clip-rule="evenodd" d="M26.6667 25.7C28.0812 25.7 29.4377 26.2689 30.4379 27.2816C31.4381 28.2943 32 29.6678 32 31.1C32 32.5322 31.4381 33.9057 30.4379 34.9184C29.4377 35.9311 28.0812 36.5 26.6667 36.5C25.2522 36.5 23.8956 35.9311 22.8954 34.9184C21.8952 33.9057 21.3333 32.5322 21.3333 31.1C21.3333 29.6678 21.8952 28.2943 22.8954 27.2816C23.8956 26.2689 25.2522 25.7 26.6667 25.7ZM22.2222 4.1C24.344 4.1 26.3788 4.95339 27.8791 6.47243C29.3794 7.99148 30.2222 10.0517 30.2222 12.2C30.2222 14.3483 29.3794 16.4085 27.8791 17.9276C26.3788 19.4466 24.344 20.3 22.2222 20.3H9.77778C8.59904 20.3 7.46858 20.7741 6.63508 21.618C5.80159 22.4619 5.33333 23.6065 5.33333 24.8C5.33333 25.9935 5.80159 27.1381 6.63508 27.982C7.46858 28.8259 8.59904 29.3 9.77778 29.3H17.7778C18.2493 29.3 18.7015 29.4896 19.0349 29.8272C19.3683 30.1648 19.5556 30.6226 19.5556 31.1C19.5556 31.5774 19.3683 32.0352 19.0349 32.3728C18.7015 32.7104 18.2493 32.9 17.7778 32.9H9.77778C7.65605 32.9 5.62121 32.0466 4.12092 30.5276C2.62063 29.0085 1.77778 26.9483 1.77778 24.8C1.77778 22.6517 2.62063 20.5915 4.12092 19.0724C5.62121 17.5534 7.65605 16.7 9.77778 16.7H22.2222C23.401 16.7 24.5314 16.2259 25.3649 15.382C26.1984 14.5381 26.6667 13.3935 26.6667 12.2C26.6667 11.0065 26.1984 9.86193 25.3649 9.01802C24.5314 8.17411 23.401 7.7 22.2222 7.7H14.2222C13.7507 7.7 13.2985 7.51036 12.9651 7.17279C12.6317 6.83523 12.4444 6.37739 12.4444 5.9C12.4444 5.42261 12.6317 4.96477 12.9651 4.62721C13.2985 4.28964 13.7507 4.1 14.2222 4.1H22.2222ZM26.6667 29.3C26.1952 29.3 25.743 29.4896 25.4096 29.8272C25.0762 30.1648 24.8889 30.6226 24.8889 31.1C24.8889 31.5774 25.0762 32.0352 25.4096 32.3728C25.743 32.7104 26.1952 32.9 26.6667 32.9C27.1382 32.9 27.5903 32.7104 27.9237 32.3728C28.2571 32.0352 28.4444 31.5774 28.4444 31.1C28.4444 30.6226 28.2571 30.1648 27.9237 29.8272C27.5903 29.4896 27.1382 29.3 26.6667 29.3ZM5.33333 0.5C6.74782 0.5 8.10438 1.06893 9.10457 2.08162C10.1048 3.09432 10.6667 4.46783 10.6667 5.9C10.6667 7.33217 10.1048 8.70568 9.10457 9.71838C8.10438 10.7311 6.74782 11.3 5.33333 11.3C3.91885 11.3 2.56229 10.7311 1.5621 9.71838C0.561903 8.70568 0 7.33217 0 5.9C0 4.46783 0.561903 3.09432 1.5621 2.08162C2.56229 1.06893 3.91885 0.5 5.33333 0.5ZM5.33333 4.1C4.86184 4.1 4.40965 4.28964 4.07625 4.62721C3.74286 4.96477 3.55556 5.42261 3.55556 5.9C3.55556 6.37739 3.74286 6.83523 4.07625 7.17279C4.40965 7.51036 4.86184 7.7 5.33333 7.7C5.80483 7.7 6.25701 7.51036 6.59041 7.17279C6.92381 6.83523 7.11111 6.37739 7.11111 5.9C7.11111 5.42261 6.92381 4.96477 6.59041 4.62721C6.25701 4.28964 5.80483 4.1 5.33333 4.1Z" fill="#0048FF"/>
</svg>
