<svg width="10" height="14" viewBox="0 0 10 14" fill="none" xmlns="http://www.w3.org/2000/svg">
<path d="M6 0H4C2.93949 0.00115803 1.92275 0.422957 1.17285 1.17285C0.422957 1.92275 0.00115803 2.93949 0 4V10C0.00115803 11.0605 0.422957 12.0773 1.17285 12.8271C1.92275 13.577 2.93949 13.9988 4 14H6C7.06051 13.9988 8.07725 13.577 8.82715 12.8271C9.57704 12.0773 9.99884 11.0605 10 10V4C9.99884 2.93949 9.57704 1.92275 8.82715 1.17285C8.07725 0.422957 7.06051 0.00115803 6 0ZM6.14625 9.14625C6.24007 9.05243 6.36732 8.99972 6.5 8.99972C6.63268 8.99972 6.75993 9.05243 6.85375 9.14625C6.94757 9.24007 7.00028 9.36732 7.00028 9.5C7.00028 9.63268 6.94757 9.75993 6.85375 9.85375L5.35375 11.3538C5.30731 11.4002 5.25217 11.4371 5.19147 11.4623C5.13077 11.4874 5.06571 11.5004 5 11.5004C4.93429 11.5004 4.86923 11.4874 4.80853 11.4623C4.74783 11.4371 4.69269 11.4002 4.64625 11.3538L3.14625 9.85375C3.05243 9.75993 2.99972 9.63268 2.99972 9.5C2.99972 9.36732 3.05243 9.24007 3.14625 9.14625C3.24007 9.05243 3.36732 8.99972 3.5 8.99972C3.63268 8.99972 3.75993 9.05243 3.85375 9.14625L4.5 9.79313V4.20687L3.85375 4.85375C3.75993 4.94757 3.63268 5.00028 3.5 5.00028C3.36732 5.00028 3.24007 4.94757 3.14625 4.85375C3.05243 4.75993 2.99972 4.63268 2.99972 4.5C2.99972 4.36732 3.05243 4.24007 3.14625 4.14625L4.64625 2.64625C4.69269 2.59976 4.74783 2.56288 4.80853 2.53772C4.86923 2.51256 4.93429 2.49961 5 2.49961C5.06571 2.49961 5.13077 2.51256 5.19147 2.53772C5.25217 2.56288 5.30731 2.59976 5.35375 2.64625L6.85375 4.14625C6.90021 4.1927 6.93706 4.24786 6.9622 4.30855C6.98734 4.36925 7.00028 4.4343 7.00028 4.5C7.00028 4.5657 6.98734 4.63075 6.9622 4.69145C6.93706 4.75214 6.90021 4.8073 6.85375 4.85375C6.8073 4.90021 6.75214 4.93706 6.69145 4.9622C6.63075 4.98734 6.5657 5.00028 6.5 5.00028C6.4343 5.00028 6.36925 4.98734 6.30855 4.9622C6.24786 4.93706 6.1927 4.90021 6.14625 4.85375L5.5 4.20687V9.79313L6.14625 9.14625Z" fill="black"/>
</svg>
