<svg width="40" height="40" viewBox="0 0 40 40" fill="none" xmlns="http://www.w3.org/2000/svg">
<path d="M18.75 4.99992C19.0815 4.99992 19.3995 5.13162 19.6339 5.36604C19.8683 5.60046 20 5.9184 20 6.24992C20 6.58144 19.8683 6.89938 19.6339 7.1338C19.3995 7.36822 19.0815 7.49992 18.75 7.49992H11.25C10.2554 7.49992 9.30161 7.89501 8.59835 8.59827C7.89509 9.30153 7.5 10.2554 7.5 11.2499V28.7499C7.5 29.7445 7.89509 30.6983 8.59835 31.4016C9.30161 32.1048 10.2554 32.4999 11.25 32.4999H28.75C29.7446 32.4999 30.6984 32.1048 31.4016 31.4016C32.1049 30.6983 32.5 29.7445 32.5 28.7499V23.7499C32.5 23.4184 32.6317 23.1005 32.8661 22.866C33.1005 22.6316 33.4185 22.4999 33.75 22.4999C34.0815 22.4999 34.3995 22.6316 34.6339 22.866C34.8683 23.1005 35 23.4184 35 23.7499V28.7499C35 30.4075 34.3415 31.9972 33.1694 33.1693C31.9973 34.3414 30.4076 34.9999 28.75 34.9999H11.25C9.5924 34.9999 8.00268 34.3414 6.83058 33.1693C5.65848 31.9972 5 30.4075 5 28.7499V11.2499C5 9.59232 5.65848 8.0026 6.83058 6.8305C8.00268 5.6584 9.5924 4.99992 11.25 4.99992H18.75ZM26.95 2.62492C27.1604 2.52211 27.3955 2.48049 27.6285 2.5048C27.8614 2.52911 28.0828 2.61838 28.2675 2.76242L39.5175 11.5124C39.6681 11.6293 39.7899 11.779 39.8737 11.9501C39.9575 12.1213 40.0011 12.3093 40.0011 12.4999C40.0011 12.6905 39.9575 12.8785 39.8737 13.0497C39.7899 13.2209 39.6681 13.3706 39.5175 13.4874L28.2675 22.2374C28.0827 22.3811 27.8613 22.4701 27.6285 22.4942C27.3956 22.5182 27.1607 22.4764 26.9505 22.3735C26.7402 22.2706 26.5631 22.1107 26.4392 21.9121C26.3154 21.7134 26.2498 21.484 26.25 21.2499V17.5624C20.67 18.1374 17.19 22.4949 15.26 26.0599L14.8675 26.8099C14.7414 27.0616 14.534 27.2633 14.279 27.3824C14.024 27.5015 13.7362 27.5311 13.4623 27.4663C13.1883 27.4015 12.9443 27.2461 12.7697 27.0254C12.595 26.8046 12.5 26.5314 12.5 26.2499C12.5 21.0599 13.795 16.3974 16.3425 12.9999C18.6875 9.87492 22.0575 7.88242 26.25 7.55242V3.74992C26.2495 3.51564 26.3149 3.28595 26.4387 3.08704C26.5624 2.88813 26.7396 2.728 26.95 2.62492Z" fill="#FEFFFF"/>
</svg>
