<svg width="20" height="20" viewBox="0 0 20 20" fill="none" xmlns="http://www.w3.org/2000/svg">
<path d="M7.69562 3.45677C7.69562 1.64427 9.02313 1.21739 9.76562 1.23052C11.2738 1.23052 11.6919 2.48614 11.8163 3.15427C11.9713 3.98552 11.82 5.97239 11.75 6.88489L11.7481 6.91052C11.8537 6.88655 11.9617 6.8746 12.07 6.87489H14.4813C15.4563 6.87489 16.25 7.66864 16.25 8.64364C16.25 9.14739 16.0881 9.60302 15.7719 9.92489C16.4244 10.213 16.875 10.8174 16.875 11.5149C16.875 12.1543 16.5856 12.7149 16.0225 13.0261C16.5369 13.3455 16.875 13.8799 16.875 14.4836C16.875 15.1755 16.5356 15.7768 15.8763 16.0668C16.1106 16.308 16.25 16.6668 16.25 17.188C16.25 18.0505 15.6444 18.7518 14.4813 18.7518H12.07C12.0417 18.7518 12.0137 18.7511 11.9862 18.7499H10.0294C3.50563 18.8574 3.125 14.6286 3.125 12.9099C3.125 9.68739 4.56125 8.72926 5.8375 7.87801C6.44125 7.47551 7.00937 7.09676 7.37312 6.51364C7.67812 6.02426 7.695 5.57614 7.695 3.45739" fill="#FFC83D"/>
<path d="M11.8748 6.875C11.2373 6.89437 9.37484 7.24625 9.37484 8.73062C9.37484 9.51187 9.66797 9.95125 10.0192 10.1956C9.66797 10.3519 9.35547 10.9319 9.35547 11.6506C9.35547 12.4506 10.0192 13.0369 10.0192 13.0369C10.0192 13.0369 9.35547 13.6819 9.35547 14.4531C9.35547 15.0356 9.61047 15.4656 10.0192 15.7581C9.79797 15.8831 9.35547 16.3163 9.35547 17.0506C9.35547 17.9263 10.173 18.66 11.7742 18.7256C10.9942 18.5813 10.6148 17.8662 10.6148 17.1881C10.6148 16.9644 10.6986 16.6044 10.9067 16.2869H14.3748C14.4577 16.2869 14.5372 16.254 14.5958 16.1953C14.6544 16.1367 14.6873 16.0573 14.6873 15.9744C14.6873 15.8915 14.6544 15.812 14.5958 15.7534C14.5372 15.6948 14.4577 15.6619 14.3748 15.6619H10.993C10.7398 15.3306 10.6148 14.9006 10.6148 14.4837C10.6148 14.2237 10.713 13.8038 10.9561 13.4375H14.3748C14.4577 13.4375 14.5372 13.4046 14.5958 13.346C14.6544 13.2874 14.6873 13.2079 14.6873 13.125C14.6873 13.0421 14.6544 12.9626 14.5958 12.904C14.5372 12.8454 14.4577 12.8125 14.3748 12.8125H11.0936C10.773 12.4687 10.6148 11.9844 10.6148 11.515C10.6148 11.2919 10.6873 10.9494 10.8623 10.625H14.3748C14.4577 10.625 14.5372 10.5921 14.5958 10.5335C14.6544 10.4749 14.6873 10.3954 14.6873 10.3125C14.6873 10.2296 14.6544 10.1501 14.5958 10.0915C14.5372 10.0329 14.4577 10 14.3748 10H11.1417C10.7892 9.62687 10.6148 9.0725 10.6148 8.64375C10.6148 8.1375 10.8917 7.01875 11.8748 6.8875V6.875Z" fill="#D67D00"/>
</svg>
