<svg width="13" height="12" viewBox="0 0 13 12" fill="none" xmlns="http://www.w3.org/2000/svg">
<path d="M6.50037 2.9999V5.71677L8.75787 7.07115C8.87158 7.13944 8.95351 7.25011 8.98563 7.37881C9.01774 7.5075 8.99742 7.64369 8.92912 7.7574C8.86083 7.87111 8.75016 7.95304 8.62147 7.98515C8.49277 8.01727 8.35659 7.99694 8.24287 7.92865L5.74287 6.42865C5.66888 6.38419 5.60766 6.32134 5.56516 6.24621C5.52267 6.17107 5.50035 6.08622 5.50037 5.9999V2.9999C5.50037 2.86729 5.55305 2.74011 5.64682 2.64635C5.74059 2.55258 5.86777 2.4999 6.00037 2.4999C6.13298 2.4999 6.26016 2.55258 6.35393 2.64635C6.4477 2.74011 6.50037 2.86729 6.50037 2.9999ZM12.0004 1.4999C11.8678 1.4999 11.7406 1.55258 11.6468 1.64635C11.5531 1.74011 11.5004 1.86729 11.5004 1.9999V3.1249C11.1035 2.6649 10.6985 2.22177 10.2429 1.76052C9.40903 0.926591 8.34793 0.356873 7.19214 0.122558C6.03636 -0.111756 4.83715 -0.000277281 3.74437 0.443066C2.65158 0.886409 1.71367 1.64196 1.04783 2.6153C0.381997 3.58865 0.0177597 4.73662 0.000633015 5.9158C-0.0164937 7.09497 0.31425 8.25304 0.951537 9.24531C1.58882 10.2376 2.50439 11.0201 3.58384 11.4949C4.6633 11.9698 5.85876 12.1161 7.02086 11.9154C8.18296 11.7148 9.26016 11.1761 10.1179 10.3668C10.1656 10.3216 10.2041 10.2675 10.2309 10.2075C10.2578 10.1476 10.2725 10.0829 10.2744 10.0172C10.2763 9.95147 10.2652 9.88605 10.2417 9.82464C10.2183 9.76323 10.183 9.70704 10.1379 9.65927C10.0927 9.61151 10.0386 9.5731 9.97864 9.54624C9.91865 9.51938 9.85396 9.5046 9.78827 9.50275C9.72257 9.50089 9.65715 9.51199 9.59574 9.53542C9.53433 9.55884 9.47814 9.59413 9.43037 9.63927C8.7154 10.3131 7.81777 10.7613 6.84958 10.928C5.88138 11.0947 4.88553 10.9725 3.98638 10.5766C3.08723 10.1807 2.32464 9.52872 1.79382 8.70203C1.263 7.87533 0.987494 6.91058 1.00169 5.92824C1.0159 4.9459 1.31918 3.98951 1.87367 3.17851C2.42816 2.3675 3.20928 1.73782 4.1195 1.36809C5.02972 0.998368 6.02868 0.904983 6.99166 1.0996C7.95463 1.29422 8.83893 1.76822 9.53412 2.4624C10.0429 2.9774 10.4885 3.47365 10.9379 3.9999H9.50037C9.36777 3.9999 9.24059 4.05258 9.14682 4.14635C9.05305 4.24011 9.00037 4.36729 9.00037 4.4999C9.00037 4.63251 9.05305 4.75968 9.14682 4.85345C9.24059 4.94722 9.36777 4.9999 9.50037 4.9999H12.0004C12.133 4.9999 12.2602 4.94722 12.3539 4.85345C12.4477 4.75968 12.5004 4.63251 12.5004 4.4999V1.9999C12.5004 1.86729 12.4477 1.74011 12.3539 1.64635C12.2602 1.55258 12.133 1.4999 12.0004 1.4999Z" fill="#000000ff"/>
</svg>
