<svg width="24" height="24" viewBox="0 0 24 24" fill="none" xmlns="http://www.w3.org/2000/svg">
<path d="M4 15.5V6.00001C4 5.11667 4.22933 4.41234 4.688 3.88701C5.14667 3.36167 5.75067 2.96167 6.5 2.68701C7.24933 2.41234 8.10367 2.22901 9.063 2.13701C10.0223 2.04501 11.0013 1.99934 12 2.00001C13.1 2.00001 14.1377 2.04601 15.113 2.13801C16.0883 2.23001 16.9383 2.41334 17.663 2.68801C18.3877 2.96267 18.9583 3.36267 19.375 3.88801C19.7917 4.41334 20 5.11734 20 6.00001V15.5C20 16.4833 19.6627 17.3127 18.988 17.988C18.3133 18.6633 17.484 19.0007 16.5 19L17 19.5C17.2833 19.7833 17.35 20.1043 17.2 20.463C17.05 20.8217 16.775 21.0007 16.375 21C16.2583 21 16.146 20.9793 16.038 20.938C15.93 20.8967 15.834 20.834 15.75 20.75L14 19H10L8.25 20.75C8.16667 20.8333 8.07067 20.896 7.962 20.938C7.85333 20.98 7.74133 21.0007 7.626 21C7.24267 21 6.972 20.821 6.814 20.463C6.656 20.105 6.718 19.784 7 19.5L7.5 19C6.51667 19 5.68733 18.6627 5.012 17.988C4.33667 17.3133 3.99933 16.484 4 15.5ZM12 4.00001C10.2333 4.00001 8.94167 4.10434 8.125 4.31301C7.30833 4.52167 6.75 4.75067 6.45 5.00001H17.65C17.4 4.71667 16.8627 4.47934 16.038 4.28801C15.2133 4.09667 13.8673 4.00067 12 4.00001ZM6 10H11V7.00001H6V10ZM16.5 12H6H18H16.5ZM13 10H18V7.00001H13V10ZM8.5 16C8.93333 16 9.29167 15.8583 9.575 15.575C9.85833 15.2917 10 14.9333 10 14.5C10 14.0667 9.85833 13.7083 9.575 13.425C9.29167 13.1417 8.93333 13 8.5 13C8.06667 13 7.70833 13.1417 7.425 13.425C7.14167 13.7083 7 14.0667 7 14.5C7 14.9333 7.14167 15.2917 7.425 15.575C7.70833 15.8583 8.06667 16 8.5 16ZM15.5 16C15.9333 16 16.2917 15.8583 16.575 15.575C16.8583 15.2917 17 14.9333 17 14.5C17 14.0667 16.8583 13.7083 16.575 13.425C16.2917 13.1417 15.9333 13 15.5 13C15.0667 13 14.7083 13.1417 14.425 13.425C14.1417 13.7083 14 14.0667 14 14.5C14 14.9333 14.1417 15.2917 14.425 15.575C14.7083 15.8583 15.0667 16 15.5 16ZM7.5 17H16.5C16.9333 17 17.2917 16.8583 17.575 16.575C17.8583 16.2917 18 15.9333 18 15.5V12H6V15.5C6 15.9333 6.14167 16.2917 6.425 16.575C6.70833 16.8583 7.06667 17 7.5 17ZM12 5.00001H17.65H6.45H12Z" fill="black"/>
</svg>
