<svg width="19" height="20" viewBox="0 0 19 20" fill="none" xmlns="http://www.w3.org/2000/svg">
<path d="M1.66699 5H17.667M7.66699 9V15M11.667 9V15M2.66699 5L3.66699 17C3.66699 17.5304 3.87771 18.0391 4.25278 18.4142C4.62785 18.7893 5.13656 19 5.66699 19H13.667C14.1974 19 14.7061 18.7893 15.0812 18.4142C15.4563 18.0391 15.667 17.5304 15.667 17L16.667 5M6.66699 5V2C6.66699 1.73478 6.77235 1.48043 6.95989 1.29289C7.14742 1.10536 7.40178 1 7.66699 1H11.667C11.9322 1 12.1866 1.10536 12.3741 1.29289C12.5616 1.48043 12.667 1.73478 12.667 2V5" stroke="#BBBEC4" stroke-width="2" stroke-linecap="round" stroke-linejoin="round"/>
</svg>
